<svg width="14" height="14" viewBox="0 0 14 14" fill="none" xmlns="http://www.w3.org/2000/svg">
<g clip-path="url(#clip0_232_114761)">
<path d="M12.4998 7.0923H6.90602V1.49855C6.90602 1.4298 6.84977 1.37355 6.78102 1.37355H6.37477C5.55398 1.37221 4.74104 1.53317 3.98269 1.84718C3.22435 2.16119 2.53558 2.62205 1.95602 3.20324C1.38525 3.77224 0.930468 4.44672 0.616953 5.18918C0.290711 5.95924 0.123304 6.78724 0.124765 7.62355C0.123421 8.44433 0.284384 9.25728 0.598393 10.0156C0.912403 10.774 1.37326 11.4627 1.95445 12.0423C2.52789 12.6157 3.19664 13.0673 3.94039 13.3814C4.71045 13.7076 5.53845 13.875 6.37477 13.8736C7.19555 13.8749 8.00849 13.7139 8.76684 13.3999C9.52518 13.0859 10.2139 12.6251 10.7935 12.0439C11.367 11.4704 11.8185 10.8017 12.1326 10.0579C12.4588 9.28787 12.6262 8.45987 12.6248 7.62355V7.2173C12.6248 7.14855 12.5685 7.0923 12.4998 7.0923ZM10.0263 11.3079C9.5425 11.788 8.9687 12.1679 8.33781 12.4258C7.70692 12.6837 7.03134 12.8147 6.34977 12.8111C4.9732 12.8048 3.67945 12.2657 2.70602 11.2923C1.72633 10.3126 1.18727 9.00949 1.18727 7.62355C1.18727 6.23762 1.72633 4.93449 2.70602 3.9548C3.55914 3.10168 4.65758 2.58136 5.84352 2.46261V8.1548H11.5357C11.4154 9.34699 10.8904 10.4517 10.0263 11.3079ZM13.8748 6.22355L13.8341 5.78293C13.7013 4.34386 13.0623 2.98605 12.0341 1.96105C11.0053 0.934171 9.65027 0.298654 8.20289 0.164177L7.7607 0.123552C7.68727 0.117302 7.62477 0.173552 7.62477 0.24699V6.24855C7.62477 6.3173 7.68102 6.37355 7.74977 6.37355L13.7498 6.35793C13.8232 6.35793 13.881 6.29543 13.8748 6.22355ZM8.68414 5.31418V1.3048C9.66841 1.51081 10.5717 1.99827 11.2841 2.70793C11.9982 3.42043 12.4873 4.32668 12.6904 5.30324L8.68414 5.31418Z" fill="#2D2E2E"/>
</g>
<defs>
<clipPath id="clip0_232_114761">
<rect width="14" height="14" fill="white"/>
</clipPath>
</defs>
</svg>
