<svg width="14" height="14" viewBox="0 0 14 14" fill="none" xmlns="http://www.w3.org/2000/svg">
<g clip-path="url(#clip0_232_102268)">
<path d="M11.9996 0H1.99963C1.72307 0 1.49963 0.223437 1.49963 0.5V13.5C1.49963 13.7766 1.72307 14 1.99963 14H11.9996C12.2762 14 12.4996 13.7766 12.4996 13.5V0.5C12.4996 0.223437 12.2762 0 11.9996 0ZM11.3746 12.875H2.62463V9.73438H4.15432C4.33557 10.2469 4.65432 10.7078 5.07776 11.0578C5.61682 11.5031 6.29963 11.75 6.99963 11.75C7.69963 11.75 8.38245 11.5047 8.92151 11.0578C9.34495 10.7078 9.6637 10.2469 9.84495 9.73438H11.3746V8.75H9.05588L8.97464 9.13594C8.78714 10.0703 7.95588 10.75 6.99963 10.75C6.04338 10.75 5.21213 10.0703 5.02307 9.13594L4.94182 8.75H2.62463V1.125H11.3746V12.875ZM3.99963 4.32812H9.99963C10.0684 4.32812 10.1246 4.27187 10.1246 4.20312V3.45312C10.1246 3.38438 10.0684 3.32812 9.99963 3.32812H3.99963C3.93088 3.32812 3.87463 3.38438 3.87463 3.45312V4.20312C3.87463 4.27187 3.93088 4.32812 3.99963 4.32812ZM3.99963 6.82812H9.99963C10.0684 6.82812 10.1246 6.77187 10.1246 6.70312V5.95312C10.1246 5.88438 10.0684 5.82812 9.99963 5.82812H3.99963C3.93088 5.82812 3.87463 5.88438 3.87463 5.95312V6.70312C3.87463 6.77187 3.93088 6.82812 3.99963 6.82812Z" fill="#2D2E2E"/>
</g>
<defs>
<clipPath id="clip0_232_102268">
<rect width="14" height="14" fill="white"/>
</clipPath>
</defs>
</svg>
