<svg width="14" height="14" viewBox="0 0 14 14" fill="none" xmlns="http://www.w3.org/2000/svg">
<g clip-path="url(#clip0_106_42300)">
<path d="M12.7815 3.25345V1.25189C12.7815 0.97533 12.5581 0.751892 12.2815 0.751892H1.719C1.44244 0.751892 1.219 0.97533 1.219 1.25189V3.25345C0.958066 3.26908 0.750254 3.48627 0.750254 3.75189V5.80971C0.749253 6.1879 0.825831 6.56228 0.975254 6.90971C1.04244 7.06908 1.12525 7.21908 1.219 7.36127V12.7519C1.219 13.0269 1.44244 13.2519 1.719 13.2519H12.2815C12.5581 13.2519 12.7815 13.0285 12.7815 12.7519V7.36127C12.8767 7.21872 12.9583 7.06753 13.0253 6.90971C13.1737 6.56127 13.2503 6.19096 13.2503 5.80971V3.75189C13.2503 3.48627 13.0424 3.26908 12.7815 3.25345ZM2.344 1.87689H11.6565V3.25189H2.344V1.87689ZM8.00025 12.1285H6.00025V10.5019H8.00025V12.1285ZM11.6565 12.1285H9.00025V10.0019C9.00025 9.72533 8.77682 9.50189 8.50025 9.50189H5.50025C5.22369 9.50189 5.00025 9.72533 5.00025 10.0019V12.1285H2.344V8.34408C2.38932 8.36596 2.43619 8.38783 2.48463 8.40658C2.83307 8.55346 3.20338 8.62689 3.58463 8.62689C3.96588 8.62689 4.33463 8.55346 4.68463 8.40658C4.90025 8.31596 5.10338 8.20033 5.28932 8.06127C5.29244 8.05971 5.29557 8.05971 5.29869 8.06127C5.48521 8.20092 5.68832 8.31691 5.90338 8.40658C6.25182 8.55346 6.62213 8.62689 7.00338 8.62689C7.38463 8.62689 7.75338 8.55346 8.10338 8.40658C8.319 8.31596 8.52213 8.20033 8.70807 8.06127C8.71119 8.05971 8.71432 8.05971 8.71744 8.06127C8.90396 8.20092 9.10707 8.31691 9.32213 8.40658C9.67057 8.55346 10.0409 8.62689 10.4221 8.62689C10.8034 8.62689 11.1721 8.55346 11.5221 8.40658C11.569 8.38627 11.6159 8.36596 11.6628 8.34408V12.1285H11.6565ZM12.1253 5.80971C12.1253 6.74408 11.3596 7.50189 10.4174 7.50189C9.77994 7.50189 9.22369 7.15658 8.92994 6.64408C8.88463 6.56596 8.80338 6.51752 8.71275 6.51752H8.70338C8.61432 6.51752 8.5315 6.56596 8.48619 6.64408C8.33628 6.90551 8.11983 7.1226 7.85884 7.27326C7.59785 7.42393 7.30161 7.50281 7.00025 7.50189C6.36432 7.50189 5.80963 7.15814 5.51588 6.6472C5.469 6.56752 5.38463 6.51752 5.29244 6.51752C5.20025 6.51752 5.11432 6.56752 5.069 6.6472C4.91822 6.90764 4.7015 7.12375 4.44064 7.27379C4.17978 7.42383 3.884 7.50251 3.58307 7.50189C2.64088 7.50189 1.87525 6.74408 1.87525 5.80971V4.38471C1.87525 4.38002 1.87838 4.37689 1.88307 4.37689H12.1174C12.1221 4.37689 12.1253 4.38002 12.1253 4.38471V5.80971Z" fill="#2D2E2E"/>
</g>
<defs>
<clipPath id="clip0_106_42300">
<rect width="14" height="14" fill="white"/>
</clipPath>
</defs>
</svg>
