<svg width="14" height="14" viewBox="0 0 14 14" fill="none" xmlns="http://www.w3.org/2000/svg">
<path d="M12.8748 11.3755H2.12476V1.62549C2.12476 1.55674 2.06851 1.50049 1.99976 1.50049H1.12476C1.05601 1.50049 0.999756 1.55674 0.999756 1.62549V12.3755C0.999756 12.4442 1.05601 12.5005 1.12476 12.5005H12.8748C12.9435 12.5005 12.9998 12.4442 12.9998 12.3755V11.5005C12.9998 11.4317 12.9435 11.3755 12.8748 11.3755ZM3.77788 8.96455C3.82632 9.01299 3.90444 9.01299 3.95444 8.96455L6.11538 6.81455L8.10913 8.8208C8.15757 8.86924 8.23726 8.86924 8.2857 8.8208L12.5888 4.51924C12.6373 4.4708 12.6373 4.39111 12.5888 4.34268L11.9701 3.72393C11.9466 3.70066 11.9149 3.68761 11.8818 3.68761C11.8487 3.68761 11.817 3.70066 11.7935 3.72393L8.19976 7.31611L6.20913 5.31299C6.18564 5.28973 6.15391 5.27668 6.12085 5.27668C6.08779 5.27668 6.05606 5.28973 6.03257 5.31299L3.16069 8.16768C3.13743 8.19117 3.12438 8.2229 3.12438 8.25596C3.12438 8.28902 3.13743 8.32075 3.16069 8.34424L3.77788 8.96455Z" fill="#2D2E2E"/>
</svg>
