<svg width="14" height="14" viewBox="0 0 14 14" fill="none" xmlns="http://www.w3.org/2000/svg">
<g clip-path="url(#clip0_232_102283)">
<rect width="14" height="14" fill="white" fill-opacity="0.01"/>
<g clip-path="url(#clip1_232_102283)">
<path d="M13.4498 8.77888L12.4264 7.90388C12.4748 7.607 12.4998 7.30388 12.4998 7.00075C12.4998 6.69763 12.4748 6.3945 12.4264 6.09763L13.4498 5.22263C13.527 5.15654 13.5823 5.06853 13.6082 4.97028C13.6342 4.87203 13.6296 4.76821 13.5951 4.67263L13.5811 4.632C13.2993 3.84454 12.8774 3.11456 12.3358 2.47731L12.3076 2.4445C12.2419 2.36724 12.1544 2.3117 12.0565 2.2852C11.9586 2.2587 11.8549 2.26249 11.7592 2.29606L10.4889 2.74763C10.0201 2.36325 9.49671 2.06013 8.93108 1.84763L8.68577 0.519501C8.66726 0.419567 8.61878 0.32763 8.54678 0.255904C8.47477 0.184178 8.38265 0.136058 8.28264 0.117938L8.24046 0.110126C7.42639 -0.0367493 6.57014 -0.0367493 5.75608 0.110126L5.71389 0.117938C5.61389 0.136058 5.52176 0.184178 5.44976 0.255904C5.37775 0.32763 5.32928 0.419567 5.31077 0.519501L5.06389 1.85388C4.50278 2.06642 3.98025 2.36938 3.51702 2.75075L2.23733 2.29606C2.14165 2.26222 2.03794 2.2583 1.93998 2.28481C1.84202 2.31133 1.75444 2.36702 1.68889 2.4445L1.66077 2.47731C1.11975 3.11501 0.69792 3.84487 0.415457 4.632L0.401395 4.67263C0.331082 4.86794 0.388895 5.08669 0.546707 5.22263L1.58264 6.107C1.53421 6.40075 1.51077 6.70075 1.51077 6.99919C1.51077 7.29919 1.53421 7.59919 1.58264 7.89138L0.546707 8.77575C0.469513 8.84183 0.414264 8.92985 0.388307 9.0281C0.36235 9.12634 0.366915 9.23016 0.401395 9.32575L0.415457 9.36638C0.69827 10.1539 1.11702 10.8804 1.66077 11.5211L1.68889 11.5539C1.7546 11.6311 1.84218 11.6867 1.94009 11.7132C2.03799 11.7397 2.14162 11.7359 2.23733 11.7023L3.51702 11.2476C3.98264 11.6304 4.50296 11.9336 5.06389 12.1445L5.31077 13.4789C5.32928 13.5788 5.37775 13.6707 5.44976 13.7425C5.52176 13.8142 5.61389 13.8623 5.71389 13.8804L5.75608 13.8883C6.57762 14.0359 7.41891 14.0359 8.24046 13.8883L8.28264 13.8804C8.38265 13.8623 8.47477 13.8142 8.54678 13.7425C8.61878 13.6707 8.66726 13.5788 8.68577 13.4789L8.93108 12.1508C9.49648 11.9388 10.0229 11.6347 10.4889 11.2508L11.7592 11.7023C11.8549 11.7362 11.9586 11.7401 12.0566 11.7136C12.1545 11.687 12.2421 11.6314 12.3076 11.5539L12.3358 11.5211C12.8795 10.8789 13.2983 10.1539 13.5811 9.36638L13.5951 9.32575C13.6655 9.13356 13.6076 8.91481 13.4498 8.77888ZM11.317 6.282C11.3561 6.51794 11.3764 6.76013 11.3764 7.00231C11.3764 7.2445 11.3561 7.48669 11.317 7.72263L11.2139 8.34919L12.3811 9.34763C12.2041 9.75526 11.9808 10.1411 11.7155 10.4976L10.2655 9.98356L9.77483 10.3867C9.40139 10.6929 8.98577 10.9336 8.53577 11.1023L7.94046 11.3258L7.66077 12.8414C7.21947 12.8914 6.77394 12.8914 6.33264 12.8414L6.05296 11.3226L5.46233 11.0961C5.01702 10.9273 4.60296 10.6867 4.23264 10.382L3.74202 9.97731L2.28264 10.4961C2.01702 10.1383 1.79514 9.75231 1.61702 9.34606L2.79671 8.33825L2.69514 7.71325C2.65764 7.48044 2.63733 7.23981 2.63733 7.00231C2.63733 6.76325 2.65608 6.52419 2.69514 6.29138L2.79671 5.66638L1.61702 4.65856C1.79358 4.25075 2.01702 3.86638 2.28264 3.50856L3.74202 4.02731L4.23264 3.62263C4.60296 3.31794 5.01702 3.07731 5.46233 2.90856L6.05452 2.68513L6.33421 1.16638C6.77327 1.11638 7.22171 1.11638 7.66233 1.16638L7.94202 2.682L8.53733 2.90544C8.98577 3.07419 9.40296 3.31481 9.77639 3.62106L10.267 4.02419L11.717 3.51013C11.9826 3.86794 12.2045 4.25388 12.3826 4.66013L11.2155 5.65856L11.317 6.282ZM6.99983 4.09606C5.48108 4.09606 4.24983 5.32731 4.24983 6.84606C4.24983 8.36481 5.48108 9.59606 6.99983 9.59606C8.51858 9.59606 9.74983 8.36481 9.74983 6.84606C9.74983 5.32731 8.51858 4.09606 6.99983 4.09606ZM8.23733 8.08356C8.07502 8.24634 7.88213 8.37542 7.66975 8.46337C7.45737 8.55133 7.2297 8.59642 6.99983 8.59606C6.53264 8.59606 6.09358 8.41325 5.76233 8.08356C5.59956 7.92125 5.47048 7.72836 5.38252 7.51598C5.29457 7.30361 5.24947 7.07593 5.24983 6.84606C5.24983 6.37888 5.43264 5.93981 5.76233 5.60856C6.09358 5.27731 6.53264 5.09606 6.99983 5.09606C7.46702 5.09606 7.90608 5.27731 8.23733 5.60856C8.40011 5.77087 8.52919 5.96376 8.61714 6.17614C8.7051 6.38852 8.75019 6.61619 8.74983 6.84606C8.74983 7.31325 8.56702 7.75231 8.23733 8.08356Z" fill="#2D2E2E"/>
</g>
</g>
<defs>
<clipPath id="clip0_232_102283">
<rect width="14" height="14" fill="white"/>
</clipPath>
<clipPath id="clip1_232_102283">
<rect width="14" height="14" fill="white"/>
</clipPath>
</defs>
</svg>
