<svg width="14" height="14" viewBox="0 0 14 14" fill="none" xmlns="http://www.w3.org/2000/svg">
<g clip-path="url(#clip0_106_42299)">
<path d="M12.9376 11.061H11.6876V9.81098C11.6876 9.74223 11.6313 9.68598 11.5626 9.68598H10.8126C10.7438 9.68598 10.6876 9.74223 10.6876 9.81098V11.061H9.43756C9.36881 11.061 9.31256 11.1172 9.31256 11.186V11.936C9.31256 12.0047 9.36881 12.061 9.43756 12.061H10.6876V13.311C10.6876 13.3797 10.7438 13.436 10.8126 13.436H11.5626C11.6313 13.436 11.6876 13.3797 11.6876 13.311V12.061H12.9376C13.0063 12.061 13.0626 12.0047 13.0626 11.936V11.186C13.0626 11.1172 13.0063 11.061 12.9376 11.061ZM4.836 6.78598C4.82194 6.65004 4.81413 6.51254 4.81413 6.37348C4.81413 6.12504 4.83756 5.88285 4.88131 5.64691C4.89225 5.59066 4.86256 5.53285 4.811 5.50941C4.5985 5.4141 4.40319 5.28285 4.23444 5.11723C4.03559 4.92442 3.87912 4.69229 3.77501 4.43564C3.67089 4.17898 3.62142 3.90344 3.62975 3.6266C3.64381 3.12504 3.84538 2.64847 4.19694 2.2891C4.58288 1.89379 5.10163 1.67816 5.65319 1.68441C6.15163 1.6891 6.63288 1.88129 6.99694 2.22191C7.12038 2.33754 7.22663 2.46566 7.31569 2.60316C7.34694 2.6516 7.40788 2.67191 7.461 2.65316C7.736 2.55785 8.02663 2.49066 8.32506 2.45941C8.41256 2.45004 8.46256 2.35629 8.4235 2.27816C7.91569 1.27347 6.87819 0.579725 5.67819 0.560975C3.94694 0.534412 2.50319 1.95472 2.50319 3.68598C2.50319 4.66722 2.95475 5.54223 3.66256 6.11566C3.16569 6.34535 2.70788 6.66254 2.311 7.05941C1.45475 7.9141 0.970376 9.04223 0.939126 10.2469C0.938709 10.2636 0.941634 10.2802 0.947729 10.2957C0.953824 10.3112 0.962965 10.3254 0.974614 10.3373C0.986263 10.3493 1.00018 10.3588 1.01556 10.3652C1.03093 10.3717 1.04744 10.375 1.06413 10.375H1.94069C2.00788 10.375 2.06413 10.3219 2.06569 10.2547C2.09538 9.34848 2.46256 8.50004 3.10788 7.85629C3.56725 7.39691 4.12975 7.07816 4.74381 6.92348C4.80319 6.90629 4.84381 6.84848 4.836 6.78598ZM11.8751 6.37348C11.8751 4.6641 10.5016 3.27504 8.7985 3.24847C7.06725 3.22191 5.62506 4.64223 5.62506 6.37348C5.62506 7.35473 6.07819 8.22972 6.78444 8.80316C6.28242 9.03587 5.82541 9.35535 5.43444 9.74691C4.57819 10.6016 4.09381 11.7297 4.06256 12.9329C4.06215 12.9495 4.06507 12.9661 4.07117 12.9816C4.07726 12.9972 4.0864 13.0113 4.09805 13.0233C4.1097 13.0352 4.12362 13.0447 4.139 13.0512C4.15437 13.0576 4.17088 13.061 4.18756 13.061H5.06256C5.12975 13.061 5.186 13.0079 5.18756 12.9407C5.21725 12.0344 5.58444 11.186 6.22975 10.5422C6.90319 9.86879 7.79694 9.49848 8.75006 9.49848C10.4751 9.49848 11.8751 8.10004 11.8751 6.37348ZM10.1641 7.78754C9.786 8.16566 9.28444 8.37348 8.75006 8.37348C8.21569 8.37348 7.71413 8.16566 7.336 7.78754C7.14731 7.59983 6.99822 7.37616 6.89757 7.12977C6.79692 6.88338 6.74676 6.6193 6.75006 6.35316C6.75475 5.84066 6.95944 5.34535 7.31725 4.97816C7.69225 4.59379 8.19381 4.37972 8.72975 4.37348C9.25944 4.36879 9.7735 4.57504 10.1516 4.94535C10.5391 5.32504 10.7516 5.83285 10.7516 6.37348C10.7501 6.90785 10.5423 7.40941 10.1641 7.78754Z" fill="#2D2E2E"/>
</g>
<defs>
<clipPath id="clip0_106_42299">
<rect width="14" height="14" fill="white"/>
</clipPath>
</defs>
</svg>
